<mxfile host="app.diagrams.net" modified="2022-12-23T14:19:20.627Z" agent="5.0 (Windows)" version="20.7.4" etag="Rr6fwVI-BMn7_mxx_JY2" type="github">
  <diagram id="-Po12ofc9HddS1MkUIDs" name="Página-1">
    <mxGraphModel dx="1354" dy="723" grid="1" gridSize="10" guides="1" tooltips="1" connect="1" arrows="1" fold="1" page="1" pageScale="1" pageWidth="827" pageHeight="1169" math="0" shadow="0">
      <root>
        <mxCell id="0" />
        <mxCell id="1" parent="0" />
        <mxCell id="rU46FVdnNK8yKsm1gDIb-5" value="" style="edgeStyle=orthogonalEdgeStyle;rounded=0;orthogonalLoop=1;jettySize=auto;html=1;" edge="1" parent="1" source="rU46FVdnNK8yKsm1gDIb-2" target="rU46FVdnNK8yKsm1gDIb-3">
          <mxGeometry relative="1" as="geometry" />
        </mxCell>
        <mxCell id="rU46FVdnNK8yKsm1gDIb-2" value="Testar IP" style="rounded=0;whiteSpace=wrap;html=1;" vertex="1" parent="1">
          <mxGeometry x="360" y="70" width="120" height="60" as="geometry" />
        </mxCell>
        <mxCell id="rU46FVdnNK8yKsm1gDIb-6" style="edgeStyle=orthogonalEdgeStyle;rounded=0;orthogonalLoop=1;jettySize=auto;html=1;" edge="1" parent="1" source="rU46FVdnNK8yKsm1gDIb-3">
          <mxGeometry relative="1" as="geometry">
            <mxPoint x="520" y="280" as="targetPoint" />
          </mxGeometry>
        </mxCell>
        <mxCell id="rU46FVdnNK8yKsm1gDIb-7" style="edgeStyle=orthogonalEdgeStyle;rounded=0;orthogonalLoop=1;jettySize=auto;html=1;" edge="1" parent="1" source="rU46FVdnNK8yKsm1gDIb-3">
          <mxGeometry relative="1" as="geometry">
            <mxPoint x="320" y="280" as="targetPoint" />
          </mxGeometry>
        </mxCell>
        <mxCell id="rU46FVdnNK8yKsm1gDIb-3" value="Respondeu?" style="rhombus;whiteSpace=wrap;html=1;" vertex="1" parent="1">
          <mxGeometry x="360" y="170" width="120" height="80" as="geometry" />
        </mxCell>
        <mxCell id="rU46FVdnNK8yKsm1gDIb-8" value="Sim" style="text;strokeColor=none;align=center;fillColor=none;html=1;verticalAlign=middle;whiteSpace=wrap;rounded=0;" vertex="1" parent="1">
          <mxGeometry x="309" y="190" width="60" height="30" as="geometry" />
        </mxCell>
        <mxCell id="rU46FVdnNK8yKsm1gDIb-9" value="Não" style="text;strokeColor=none;align=center;fillColor=none;html=1;verticalAlign=middle;whiteSpace=wrap;rounded=0;" vertex="1" parent="1">
          <mxGeometry x="473" y="189" width="60" height="30" as="geometry" />
        </mxCell>
        <mxCell id="rU46FVdnNK8yKsm1gDIb-13" style="edgeStyle=orthogonalEdgeStyle;rounded=0;orthogonalLoop=1;jettySize=auto;html=1;" edge="1" parent="1" target="rU46FVdnNK8yKsm1gDIb-14">
          <mxGeometry relative="1" as="geometry">
            <mxPoint x="200" y="400" as="targetPoint" />
            <mxPoint x="260" y="305" as="sourcePoint" />
          </mxGeometry>
        </mxCell>
        <mxCell id="rU46FVdnNK8yKsm1gDIb-15" style="edgeStyle=orthogonalEdgeStyle;rounded=0;orthogonalLoop=1;jettySize=auto;html=1;entryX=0;entryY=0.5;entryDx=0;entryDy=0;exitX=0;exitY=0.5;exitDx=0;exitDy=0;" edge="1" parent="1" source="rU46FVdnNK8yKsm1gDIb-14" target="rU46FVdnNK8yKsm1gDIb-2">
          <mxGeometry relative="1" as="geometry">
            <mxPoint x="80" y="450" as="targetPoint" />
            <Array as="points">
              <mxPoint x="120" y="400" />
              <mxPoint x="120" y="100" />
            </Array>
          </mxGeometry>
        </mxCell>
        <mxCell id="rU46FVdnNK8yKsm1gDIb-18" style="edgeStyle=orthogonalEdgeStyle;rounded=0;orthogonalLoop=1;jettySize=auto;html=1;entryX=0;entryY=0.5;entryDx=0;entryDy=0;" edge="1" parent="1" source="rU46FVdnNK8yKsm1gDIb-14" target="rU46FVdnNK8yKsm1gDIb-23">
          <mxGeometry relative="1" as="geometry">
            <mxPoint x="280" y="480" as="targetPoint" />
          </mxGeometry>
        </mxCell>
        <mxCell id="rU46FVdnNK8yKsm1gDIb-14" value="Próximo IP" style="rhombus;whiteSpace=wrap;html=1;" vertex="1" parent="1">
          <mxGeometry x="160" y="360" width="80" height="80" as="geometry" />
        </mxCell>
        <mxCell id="rU46FVdnNK8yKsm1gDIb-17" value="Sim" style="text;strokeColor=none;align=center;fillColor=none;html=1;verticalAlign=middle;whiteSpace=wrap;rounded=0;" vertex="1" parent="1">
          <mxGeometry x="110" y="380" width="60" height="30" as="geometry" />
        </mxCell>
        <mxCell id="rU46FVdnNK8yKsm1gDIb-19" value="Não" style="text;strokeColor=none;align=center;fillColor=none;html=1;verticalAlign=middle;whiteSpace=wrap;rounded=0;" vertex="1" parent="1">
          <mxGeometry x="230" y="380" width="60" height="30" as="geometry" />
        </mxCell>
        <mxCell id="rU46FVdnNK8yKsm1gDIb-21" value="&lt;br&gt;&lt;div&gt;&lt;div align=&quot;center&quot;&gt;Retornar &quot;Conectado&quot;&lt;br&gt;&lt;/div&gt;&lt;br&gt;&lt;/div&gt;" style="rounded=0;whiteSpace=wrap;html=1;verticalAlign=middle;" vertex="1" parent="1">
          <mxGeometry x="260" y="280" width="120" height="60" as="geometry" />
        </mxCell>
        <mxCell id="rU46FVdnNK8yKsm1gDIb-22" style="edgeStyle=orthogonalEdgeStyle;rounded=0;orthogonalLoop=1;jettySize=auto;html=1;exitX=0.5;exitY=1;exitDx=0;exitDy=0;" edge="1" parent="1" source="rU46FVdnNK8yKsm1gDIb-21" target="rU46FVdnNK8yKsm1gDIb-21">
          <mxGeometry relative="1" as="geometry" />
        </mxCell>
        <mxCell id="rU46FVdnNK8yKsm1gDIb-23" value="Finalizar Aplicação " style="shape=process;whiteSpace=wrap;html=1;backgroundOutline=1;" vertex="1" parent="1">
          <mxGeometry x="380" y="670" width="120" height="60" as="geometry" />
        </mxCell>
        <mxCell id="rU46FVdnNK8yKsm1gDIb-29" style="edgeStyle=orthogonalEdgeStyle;rounded=0;orthogonalLoop=1;jettySize=auto;html=1;" edge="1" parent="1" source="rU46FVdnNK8yKsm1gDIb-24">
          <mxGeometry relative="1" as="geometry">
            <mxPoint x="640" y="360" as="targetPoint" />
          </mxGeometry>
        </mxCell>
        <mxCell id="rU46FVdnNK8yKsm1gDIb-24" value="Buscar MAC na planilha" style="rounded=0;whiteSpace=wrap;html=1;" vertex="1" parent="1">
          <mxGeometry x="460" y="280" width="120" height="60" as="geometry" />
        </mxCell>
        <mxCell id="rU46FVdnNK8yKsm1gDIb-31" style="edgeStyle=orthogonalEdgeStyle;rounded=0;orthogonalLoop=1;jettySize=auto;html=1;" edge="1" parent="1" source="rU46FVdnNK8yKsm1gDIb-26">
          <mxGeometry relative="1" as="geometry">
            <mxPoint x="520" y="460" as="targetPoint" />
          </mxGeometry>
        </mxCell>
        <mxCell id="rU46FVdnNK8yKsm1gDIb-35" style="edgeStyle=orthogonalEdgeStyle;rounded=0;orthogonalLoop=1;jettySize=auto;html=1;exitX=1;exitY=0.5;exitDx=0;exitDy=0;" edge="1" parent="1" source="rU46FVdnNK8yKsm1gDIb-26" target="rU46FVdnNK8yKsm1gDIb-36">
          <mxGeometry relative="1" as="geometry">
            <mxPoint x="710" y="460" as="targetPoint" />
          </mxGeometry>
        </mxCell>
        <mxCell id="rU46FVdnNK8yKsm1gDIb-26" value="MAC Existente?" style="rhombus;whiteSpace=wrap;html=1;" vertex="1" parent="1">
          <mxGeometry x="590" y="360" width="100" height="80" as="geometry" />
        </mxCell>
        <mxCell id="rU46FVdnNK8yKsm1gDIb-38" style="edgeStyle=orthogonalEdgeStyle;rounded=0;orthogonalLoop=1;jettySize=auto;html=1;" edge="1" parent="1" source="rU46FVdnNK8yKsm1gDIb-33" target="rU46FVdnNK8yKsm1gDIb-39">
          <mxGeometry relative="1" as="geometry">
            <mxPoint x="610" y="590" as="targetPoint" />
          </mxGeometry>
        </mxCell>
        <mxCell id="rU46FVdnNK8yKsm1gDIb-33" value="Executar &quot;arp -a&quot; para descobrir novo IP" style="rounded=0;whiteSpace=wrap;html=1;" vertex="1" parent="1">
          <mxGeometry x="460" y="460" width="120" height="60" as="geometry" />
        </mxCell>
        <mxCell id="rU46FVdnNK8yKsm1gDIb-34" value="Sim" style="text;strokeColor=none;align=center;fillColor=none;html=1;verticalAlign=middle;whiteSpace=wrap;rounded=0;" vertex="1" parent="1">
          <mxGeometry x="520" y="380" width="60" height="30" as="geometry" />
        </mxCell>
        <mxCell id="rU46FVdnNK8yKsm1gDIb-37" style="edgeStyle=orthogonalEdgeStyle;rounded=0;orthogonalLoop=1;jettySize=auto;html=1;entryX=1;entryY=0.5;entryDx=0;entryDy=0;" edge="1" parent="1" source="rU46FVdnNK8yKsm1gDIb-36" target="rU46FVdnNK8yKsm1gDIb-23">
          <mxGeometry relative="1" as="geometry">
            <Array as="points">
              <mxPoint x="750" y="700" />
            </Array>
          </mxGeometry>
        </mxCell>
        <mxCell id="rU46FVdnNK8yKsm1gDIb-36" value="&quot;Inserir o MAC&quot;" style="rounded=0;whiteSpace=wrap;html=1;" vertex="1" parent="1">
          <mxGeometry x="680" y="460" width="120" height="60" as="geometry" />
        </mxCell>
        <mxCell id="rU46FVdnNK8yKsm1gDIb-40" style="edgeStyle=orthogonalEdgeStyle;rounded=0;orthogonalLoop=1;jettySize=auto;html=1;entryX=1;entryY=0.5;entryDx=0;entryDy=0;" edge="1" parent="1" source="rU46FVdnNK8yKsm1gDIb-39" target="rU46FVdnNK8yKsm1gDIb-2">
          <mxGeometry relative="1" as="geometry">
            <mxPoint x="820" y="100" as="targetPoint" />
            <Array as="points">
              <mxPoint x="820" y="590" />
              <mxPoint x="820" y="100" />
            </Array>
          </mxGeometry>
        </mxCell>
        <mxCell id="rU46FVdnNK8yKsm1gDIb-39" value="Adicionar novo IP a planilha" style="rounded=0;whiteSpace=wrap;html=1;" vertex="1" parent="1">
          <mxGeometry x="550" y="560" width="120" height="60" as="geometry" />
        </mxCell>
      </root>
    </mxGraphModel>
  </diagram>
</mxfile>
